<?xml version="1.0" encoding="UTF-8"?>
<svg width="31px" height="73px" viewBox="0 0 31 73" version="1.1" xmlns="http://www.w3.org/2000/svg" xmlns:xlink="http://www.w3.org/1999/xlink">
    <!-- Generator: Sketch 58 (84663) - https://sketch.com -->
    <title>Shape Copy</title>
    <desc>Created with Sketch.</desc>
    <g id="Page-2" stroke="none" stroke-width="1" fill="none" fill-rule="evenodd">
        <g id="Assets" transform="translate(-706.000000, -2684.000000)" fill="#FFFFFF" fill-rule="nonzero">
            <g id="accidentalSharp-Copy" transform="translate(706.000000, 2684.000000)">
                <path d="M20.8690865,0.0997049122 C20.439129,0.220197011 19.9661124,0.568152438 19.8002084,0.884927085 C19.6773633,1.12131235 19.6773633,1.18827284 19.6773633,10.3788767 C19.6773633,15.4693459 19.6650788,19.636349 19.6465888,19.636349 C19.6280987,19.636349 17.7055111,19.9753825 15.3649971,20.3948053 C13.0306888,20.8097213 11.1079745,21.1532617 11.09569,21.1532617 C11.0834055,21.1532617 11.0771999,17.2494097 11.0771999,12.4757151 C11.0771999,10.8371145 11.0788463,9.49615705 11.0788463,8.39701157 C11.0788463,2.84646487 11.0360405,3.46492966 10.5181918,3.08882875 C10.1309135,2.80930547 9.6219299,2.67814384 9.11737887,2.67814384 C8.33357709,2.67814384 7.5600335,2.9944586 7.26862489,3.56169125 C7.14577988,3.79807651 7.14577988,3.86503701 7.14577988,12.8280855 L7.14577988,21.8580945 L4.33845494,22.3577228 C0.652724896,23.0135309 0.480741891,23.0715695 0.142854808,23.7273776 C0.0476182695,23.9148302 0,25.5231698 0,27.1315094 C0,28.739849 0.0476182695,30.3481885 0.142854808,30.5356411 C0.413113816,31.0621272 1.15031048,31.4145896 1.96729308,31.4145896 C2.29289566,31.4145896 5.88642863,30.82565 7.04129831,30.5847577 C7.04357791,30.5842059 7.0458575,30.5839299 7.0481371,30.5839299 C7.1398276,30.5839299 7.14577988,31.1040695 7.14577988,37.9862838 L7.14577988,45.4145757 L4.33845494,45.914296 C0.652724896,46.5701961 0.480741891,46.6280507 0.142854808,47.2839509 C0.0476182695,47.4714034 0,49.079743 0,50.6880826 C0,52.2964222 0.0476182695,53.9047617 0.142854808,54.0921223 C0.413113816,54.6185164 1.15031048,54.9709788 1.96729308,54.9709788 C2.29289566,54.9709788 5.88642863,54.3821312 7.04129831,54.141239 C7.04332462,54.1407791 7.04535093,54.1405031 7.04725059,54.1405031 C7.1398276,54.1405031 7.14577988,54.7343176 7.14577988,62.9972243 C7.14577988,64.6748238 7.14413351,66.0476979 7.14413351,67.1725974 C7.14413351,72.8535699 7.18693929,72.2132142 7.70478797,72.5893151 C8.09206635,72.8688384 8.60104992,73 9.10560095,73 C9.88940273,73 10.6629463,72.6836852 10.9543549,72.1164526 C11.0771999,71.8800673 11.0771999,71.8131068 11.0771999,62.6447619 C11.0771999,57.5631226 11.0894844,53.4095484 11.1078479,53.4095484 C11.1201324,53.4095484 13.0489256,53.0660079 15.3832339,52.651184 C17.7237479,52.2361761 19.6464621,51.8927276 19.6587466,51.8927276 C19.6648256,51.8927276 19.6771101,55.7875657 19.6771101,60.5479234 C19.6771101,62.182017 19.6754637,63.5194793 19.6754637,64.6157735 C19.6754637,70.1518795 19.7182695,69.53645 20.2361181,69.9125509 C20.6235232,70.1920742 21.1323801,70.3232358 21.6369311,70.3232358 C22.4207329,70.3232358 23.1942765,70.0069211 23.4856851,69.4396884 C23.6086568,69.2033032 23.6086568,69.1363427 23.6086568,60.195553 L23.6086568,51.1878948 L26.5449056,50.6659157 C29.9787401,50.0502103 30.0033091,50.0457953 30.4209821,49.7468645 C30.9551679,49.3588984 30.9803701,49.4797584 30.9803701,46.8015226 L30.9801168,45.8697783 L30.9803701,44.9380341 C30.9803701,42.2598902 30.9551679,42.3806583 30.4209821,41.9927841 C30.0278781,41.7116972 29.6039995,41.5867901 29.0327069,41.5867901 C28.7071043,41.5867901 24.8064589,42.2292613 23.7190906,42.4612316 C23.7166844,42.4617835 23.7142781,42.4620594 23.7118719,42.4620594 C23.6144824,42.4620594 23.6086568,41.9419199 23.6086568,35.0597055 L23.6086568,27.6314136 L26.5449056,27.1094345 C30.3657652,26.4268606 30.5193848,26.3777439 30.8571452,25.7175208 C30.9525084,25.5300682 31,23.9217286 31,22.3133891 C31,20.7050495 30.9523817,19.0967099 30.8571452,18.9093493 C30.5868862,18.3829552 29.8498162,18.0304928 29.0327069,18.0304928 C28.7071043,18.0304928 24.8064589,18.6729641 23.7190906,18.9049343 C23.7170643,18.9053942 23.7147847,18.9056702 23.712885,18.9056702 C23.6144824,18.9056702 23.6086568,18.3113958 23.6086568,10.0265982 C23.6086568,1.19287178 23.6086568,1.1214963 23.4856851,0.885111042 C23.2082074,0.341884833 22.4225059,0 21.6090694,0 C21.3603399,0 21.1090775,0.0319166093 20.8688332,0.0997968909 L20.8690865,0.0997049122 Z M19,36.2565363 C19,40.2510746 18.9871444,43.5172982 18.9677947,43.5172982 C18.948445,43.5172982 16.9364729,43.8486854 14.4871444,44.2586491 C12.0443099,44.6642074 10.0322053,45 10.0193497,45 C10.0064941,45 10,41.7337765 10,37.7435536 L10,30.4871072 L12.9443365,29.9986571 C14.5577841,29.7283148 16.550804,29.3968376 17.3607086,29.2573061 C18.1771073,29.1177746 18.8778053,29 18.9227337,29 L18.9229988,29 C18.9806503,29 19,30.4824321 19,36.2564464 L19,36.2565363 Z" id="Shape-Copy"></path>
            </g>
        </g>
    </g>
</svg>