<?xml version="1.0" encoding="UTF-8"?>
<svg width="22px" height="82px" viewBox="0 0 22 82" version="1.1" xmlns="http://www.w3.org/2000/svg" xmlns:xlink="http://www.w3.org/1999/xlink">
    <!-- Generator: Sketch 58 (84663) - https://sketch.com -->
    <title>Shape</title>
    <desc>Created with Sketch.</desc>
    <g id="Page-2" stroke="none" stroke-width="1" fill="none" fill-rule="evenodd">
        <g id="Assets" transform="translate(-1489.000000, -2808.000000)" fill="#FFFFFF" fill-rule="nonzero">
            <g id="natural-copy" transform="translate(1489.000000, 2808.000000)">
                <path d="M1.14730658,0.130369859 C0.733373975,0.287630001 0.277987143,0.741763679 0.11826646,1.15520179 L0,1.46960203 L0,61.2004855 L0.11826646,61.5148857 C0.277987143,61.9399683 0.733373975,62.3883397 1.16498559,62.5454798 C1.33506983,62.6085039 1.44553314,62.6577228 1.67353137,62.6577228 C2.30960984,62.6577228 3.86133895,62.2747763 10.1778652,60.7404695 C14.5245843,59.6807042 18.1143981,58.8188946 18.1498781,58.8188946 C18.1971847,58.8188946 18.2149856,61.9225616 18.2149856,69.6784878 C18.2149856,71.5713717 18.2137663,73.1472143 18.2137663,74.4609968 C18.2137663,81.759428 18.2519286,80.9656844 18.7531589,81.463995 C19.126125,81.8288145 19.6160164,82 20.1017624,82 C20.8563511,82 21.6009421,81.5871621 21.8816116,80.846839 L22,80.5324387 L22,20.3356571 L21.8816116,20.021377 C21.7218909,19.5962944 21.266626,19.1478029 20.8348925,18.9906628 C20.6646863,18.9277587 20.5543449,18.8784198 20.3262248,18.8784198 C19.6901463,18.8784198 18.1384172,19.2613663 11.8220129,20.7957931 C7.47529373,21.8496762 3.88547994,22.717248 3.85,22.717248 C3.80269342,22.717248 3.78489249,19.6778056 3.78489249,12.0905439 C3.78489249,1.55687541 3.78489249,1.46371978 3.66662603,1.15520179 C3.39936821,0.446210648 2.64307249,0 1.85995345,0 C1.62049435,0 1.37859676,0.0416559309 1.14730658,0.130249813 L1.14730658,0.130369859 Z M17.9955003,39.2841092 L17.9783304,47.5794776 L11.0571936,49.2868351 C7.2491415,50.2296388 4.10159858,51 4.06145648,51 C4.0169331,51 4,49.9910638 4,46.457239 C4,45.4327771 4.00142096,44.1961695 4.00402605,42.7103205 L4.02131439,34.4149521 L10.9136767,32.7132834 C14.7045589,31.7704798 17.8521018,31 17.9094139,31 L17.9111901,31 C17.9806986,31 18,31.2751967 18,34.9691381 C18,36.0737176 17.9983422,37.4839528 17.9956187,39.2838722 L17.9955003,39.2841092 Z" id="Shape"></path>
            </g>
        </g>
    </g>
</svg>