<?xml version="1.0" encoding="UTF-8"?>
<svg width="69px" height="42px" viewBox="0 0 69 42" version="1.1" xmlns="http://www.w3.org/2000/svg" xmlns:xlink="http://www.w3.org/1999/xlink">
    <!-- Generator: Sketch 58 (84663) - https://sketch.com -->
    <title>path6230 copy 3</title>
    <desc>Created with Sketch.</desc>
    <g id="Page-2" stroke="none" stroke-width="1" fill="none" fill-rule="evenodd">
        <g id="Assets" transform="translate(-481.000000, -2702.000000)" fill="#FFFFFF" fill-rule="nonzero">
            <g id="notehead-copy" transform="translate(481.000000, 2703.000000)">
                <path d="M30.6907213,-0.0455659698 C13.181998,1.01537136 0,9.78469547 0,20.3727905 C0,31.8703455 15.129832,40.8707546 34.4642885,40.8707546 C53.8950624,40.8707546 69,31.6508669 69,20.4273998 C69,19.5987378 68.9177598,18.7592135 68.7486857,17.911654 C66.6578574,7.44125899 51.8469101,-0.156272474 34.354783,-0.156272474 C33.1451848,-0.156272474 31.9225466,-0.119816703 30.6905731,-0.0457147688 L30.6907213,-0.0455659698 Z M31.9734309,2.80027138 C41.5557186,4.25995796 49.4189189,15.1832719 49.4189189,25.0239151 C49.4189189,27.0607418 49.0821048,29.0511032 48.3538741,30.9014805 C46.4543611,35.7356355 42.5185322,38.0734573 38.074663,38.0734573 C32.7362333,38.0734573 26.6646765,34.6997241 22.5092507,28.2267853 C19.8562831,24.0885805 18.6486486,19.7451049 18.6486486,15.8358446 C18.6486486,8.4669785 22.9392452,2.64102482 29.9259868,2.64102482 C30.5849258,2.64102482 31.2677534,2.69278363 31.9732826,2.7999773 L31.9734309,2.80027138 Z" id="path6230-copy-3"></path>
            </g>
        </g>
    </g>
</svg>