<?xml version="1.0" encoding="UTF-8"?>
<svg width="29px" height="87px" viewBox="0 0 29 87" version="1.1" xmlns="http://www.w3.org/2000/svg" xmlns:xlink="http://www.w3.org/1999/xlink">
    <!-- Generator: Sketch 58 (84663) - https://sketch.com -->
    <title>path5 copy</title>
    <desc>Created with Sketch.</desc>
    <g id="Page-2" stroke="none" stroke-width="1" fill="none" fill-rule="evenodd">
        <g id="Assets" transform="translate(-436.000000, -2633.000000)" fill="#FFFFFF" fill-rule="nonzero">
            <g id="accindalFlat-Copy" transform="translate(436.000000, 2633.000000)">
                <path d="M1.33017908,0.149473997 C0.850288638,0.328549446 0.322271253,0.845641472 0.137072155,1.31646456 L0,1.67448212 L0,85.3359184 L0.137072155,85.6939359 C0.445691352,86.4827746 1.25474802,87 2.19425767,87 C3.05130339,87 3.24339746,86.8873278 4.74512359,85.5213942 C7.33708357,83.1675454 8.39987541,82.2326995 12.9256008,78.3141074 C21.2978963,71.0672186 24.3220335,67.8647949 26.5984793,63.8400642 C28.2252803,60.9707235 29,58.0219122 29,55.299112 C29,50.3207345 26.4101085,46.0981274 21.7024936,44.4995157 C20.1409191,43.9697564 18.5376989,43.7073435 16.9150349,43.7073435 C12.8307259,43.7073435 8.62396219,45.3692917 4.6488697,48.6102506 L4.38837745,48.8157274 L4.38837745,25.2452381 C4.38837745,1.72008436 4.38837745,1.6747488 4.25130529,1.31606454 C3.94254819,0.508024915 3.06564494,0 2.15757639,0 C1.87998459,0 1.5994969,0.0474689946 1.33128228,0.148273938 L1.33017908,0.149473997 Z M14.1361902,50.1286389 C16.9639927,50.6648401 18,52.0264402 18,55.23803 L18,55.2718679 C17.9853671,61.6613467 12.6297361,71.2524145 4.40752548,79.5913419 L4.00731644,80 L4,67.745051 L4,55.4901021 L4.53834335,54.7340229 C6.430081,52.0772656 8.96961589,50.4627714 11.9308701,50.0405507 C12.1114398,50.0127406 12.346151,50 12.6036896,50 C13.1032558,50 13.689156,50.0483595 14.1356049,50.1291869 L14.1361902,50.1286389 Z" id="path5-copy"></path>
            </g>
        </g>
    </g>
</svg>