<?xml version="1.0" encoding="UTF-8"?>
<svg width="740px" height="559px" viewBox="0 0 740 559" version="1.1" xmlns="http://www.w3.org/2000/svg" xmlns:xlink="http://www.w3.org/1999/xlink">
    <!-- Generator: Sketch 58 (84663) - https://sketch.com -->
    <title>grandStaff</title>
    <desc>Created with Sketch.</desc>
    <g id="Page-2" stroke="none" stroke-width="1" fill="none" fill-rule="evenodd">
        <g id="Assets" transform="translate(-226.000000, -1670.000000)">
            <g id="grandStaff" transform="translate(227.000000, 1670.000000)">
                <g id="grandStaff-Copy" transform="translate(0.000000, 54.000000)" stroke="#000000" stroke-linecap="square" stroke-width="4">
                    <g id="staff-copy">
                        <path d="M1.21317829,1 L735.786822,1" id="Line-2"></path>
                        <path d="M1.21317829,51 L735.786822,51" id="Line-2-Copy"></path>
                        <path d="M1.21317829,101 L735.786822,101" id="Line-2-Copy-2"></path>
                        <path d="M1.21317829,201 L735.786822,201" id="Line-2-Copy-3"></path>
                        <path d="M1.21317829,151 L735.786822,151" id="Line-2-Copy-4"></path>
                    </g>
                    <g id="Group-3-Copy" transform="translate(0.500000, 301.500000)">
                        <path d="M1.21317829,1 L735.786822,1" id="Line-2"></path>
                        <path d="M1.21317829,51 L735.786822,51" id="Line-2-Copy"></path>
                        <path d="M1.21317829,101 L735.786822,101" id="Line-2-Copy-2"></path>
                        <path d="M1.21317829,201 L735.786822,201" id="Line-2-Copy-3"></path>
                        <path d="M1.21317829,151 L735.786822,151" id="Line-2-Copy-4"></path>
                    </g>
                </g>
                <g id="clefBass-Copy" transform="translate(27.000000, 361.000000)" fill="#000000" fill-rule="nonzero">
                    <path d="M48.808608,0.085303766 C29.393341,1.06399847 13.2261824,10.3922462 5.33568321,25.1592476 C2.4621888,30.5479426 1.14513845,36.1677752 1.14513845,41.4903215 C1.14513845,55.6476819 10.4640458,67.7005422 24.6018744,67.7005422 C37.1247575,67.6921139 45.4537603,57.3836391 45.4537603,46.6869555 C45.4537603,41.5968236 43.5676046,36.4185785 39.3501184,32.2205605 C35.343545,28.2327371 29.9226756,26.1525001 24.5459389,26.1525001 C20.8028782,26.1525001 17.0816272,27.1605659 13.8735461,29.2351841 C13.5302355,29.4555947 13.3116251,29.5991298 13.2133531,29.5991298 C13.1730693,29.5991298 13.1527991,29.5748668 13.1527991,29.5217435 C13.1527991,29.3478157 13.3673041,28.864598 13.7863072,27.9096555 C20.0911116,13.6427284 35.5282862,4.8796819 50.4284285,4.8796819 C56.6175131,4.8796819 62.7139706,6.39190824 68.0247651,9.64928618 C79.3876278,16.6115037 85.8345803,28.6901594 87.6640307,46.467311 C87.7759017,47.5325865 87.8318372,51.1314349 87.8318372,54.7627192 C87.8318372,58.3940034 87.7759017,62.057979 87.6640307,63.2532533 C83.8432248,104.617662 53.9359442,141.113627 8.60893691,159.671283 C6.33123266,160.60043 1.86331962,162.297566 1.68909846,162.297566 C0.755129391,162.297566 0,163.65834 0,164.840333 C0,165.249485 0.0903178884,165.636928 0.295329232,165.939577 C0.777195693,166.640907 1.11614436,167 2.15120789,167 C3.25529276,167 5.15145524,166.591615 8.85808086,165.753901 C63.9430123,153.291123 107.079811,111.381689 114.260853,63.3150602 C114.771713,59.9026542 115.026245,56.5952177 115.026245,53.3965819 C115.026245,36.5656892 107.975036,22.7480115 94.086351,12.4735049 C83.7364855,4.830645 67.3373741,0 52.2365824,0 C51.0852859,0 49.9414303,0.0283494552 48.8088645,0.085303766 L48.808608,0.085303766 Z M129.830168,20.4141617 C125.739179,20.9492258 123.022201,24.5718264 123.022201,28.3795924 C123.022201,29.7730575 123.386038,31.1915519 124.179912,32.4928174 C125.716856,35.0072353 128.346595,36.2413305 130.973254,36.2413305 C133.833919,36.2413305 136.691249,34.7778857 138.131717,31.9105043 C138.728277,30.7257014 139,29.5059086 139,28.3228935 C139,24.0955045 135.525327,20.339074 130.957089,20.339074 C130.58812,20.339074 130.212223,20.363337 129.830168,20.4141617 Z M129.830168,69.967477 C125.739179,70.502541 123.022201,74.1248863 123.022201,77.9329077 C123.022201,79.3266282 123.386038,80.7448671 124.179912,82.0458773 C125.716856,84.5605506 128.346595,85.7946458 130.973254,85.7946458 C133.833919,85.7946458 136.691249,84.3312009 138.131717,81.4638195 C138.728277,80.2790166 139,79.0592239 139,77.8762088 C139,73.6488197 135.525327,69.8923892 130.957089,69.8923892 C130.58812,69.8923892 130.212223,69.9169077 129.830168,69.9677324 L129.830168,69.967477 Z" id="path5563"></path>
                </g>
                <g id="clefTreble-Copy" transform="translate(36.000000, 0.000000)" fill="#000000" fill-rule="nonzero">
                    <path d="M69.1277253,0.172764945 C67.66135,0.710897092 61.8894167,6.25596654 58.5567457,10.3273041 C47.6194433,23.6853887 41.817525,40.4075205 41.817525,57.8708464 C41.817525,62.3630957 42.2008273,66.9065613 42.98116,71.4529123 C43.1798559,72.6478398 46.1523455,86.7243957 46.7704702,89.4229913 C46.8499485,89.7825877 47.6183595,93.3165145 48.4666101,97.2868621 L50.0012644,104.504758 L45.7441159,108.786371 C33.5478044,121.022024 23.576525,132.739744 13.7049548,146.419193 C4.53207131,159.129138 0,173.589456 0,187.857532 C0,204.458837 6.1389787,220.798649 18.2543668,233.808679 C30.5204024,246.991113 48.525135,254.524242 66.1375336,254.524242 C70.831813,254.524242 75.4968299,253.988635 80.0205921,252.883156 C80.870649,252.675405 81.5852315,252.5131 81.6679612,252.5131 C81.6733802,252.5131 81.6762703,252.513821 81.6769928,252.514903 C81.7080616,252.554578 85.5855205,270.615187 86.0735897,273.033175 C87.105363,278.09205 87.6208884,282.821265 87.6208884,287.206753 C87.6208884,292.150572 86.9659146,296.653641 85.6541609,300.701535 C81.4295262,313.747993 68.398331,322.554677 54.4271238,322.554677 C52.5669695,322.554677 50.6905583,322.399586 48.816676,322.075336 C45.7560376,321.548385 41.9865971,320.362113 39.862358,319.248339 L39.3945196,319.010291 L40.2622785,318.999831 C50.2545113,318.948976 58.3920088,310.606845 58.3920088,300.403975 L58.3920088,300.392433 C58.3920088,288.697437 48.8224562,281.068728 38.7471325,281.068728 C33.7703437,281.068728 28.6678348,282.929468 24.5378516,287.083401 C20.4465237,291.195135 18.373223,296.379526 18.373223,301.564638 C18.373223,306.145614 19.9898846,310.726951 23.2615018,314.570701 C31.3430032,324.073494 42.9291378,329 54.5358646,329 C63.3825256,329 72.2429147,326.136214 79.570817,320.25391 C89.2747602,312.456043 94.0987338,301.534341 94.0987338,287.285742 C94.0987338,284.725286 93.9441123,282.054102 93.6323405,279.27796 C93.2327812,275.653503 92.7360416,273.036782 90.2516212,261.46694 C88.9644334,255.432791 87.9088167,250.465889 87.9088167,250.425854 C87.9088167,250.374998 88.4163942,250.127573 89.0352414,249.867884 C107.514676,241.969388 120,223.805625 120,205.049267 C120,204.585435 119.99133,204.119078 119.976518,203.654524 C119.188237,179.78014 102.396994,161.213138 78.9324615,158.295971 C78.2052347,158.20508 76.4827225,158.162159 74.6763967,158.162159 C72.4907426,158.162159 70.1829808,158.225639 69.371218,158.345023 C68.8163147,158.423651 68.3383609,158.487491 68.2281751,158.487491 C68.214447,158.487491 68.2050541,158.486409 68.2039703,158.483524 C68.1934936,158.473064 66.5873088,150.956887 64.6245552,141.787722 L61.0538104,125.112117 L62.838099,123.390239 C63.8250754,122.43408 65.9695453,120.382902 67.6143856,118.820083 C85.5627608,101.806884 94.4975705,83.9363518 95.8953054,62.2426291 C95.9747837,61.0033382 96.0138003,59.7413245 96.0138003,58.4569488 C96.0138003,40.1568491 88.0706635,17.753672 76.7392208,4.86951884 C73.7739564,1.4932085 71.762432,0 70.086523,0 C69.7563267,0 69.4380521,0.0569871844 69.1295316,0.17168291 L69.1277253,0.172764945 Z M77.9032171,27.6120942 C80.8446379,27.9998235 83.3290584,29.6423529 84.4551218,31.9222009 C85.5269955,34.0913207 86.1808855,38.3444402 86.1808855,42.4399432 C86.1808855,43.75678 86.1126063,45.0577469 85.9699066,46.2678229 C84.2452268,60.9218249 75.6485613,77.3994168 61.5292354,93.0986647 C60.1914705,94.5915125 55.6528964,99.2525593 55.5380141,99.2525593 L55.5362078,99.2518379 C55.4567295,99.1724887 51.3867163,79.8971146 51.1685121,78.5745069 C50.6168602,75.180884 50.3437438,71.8153941 50.3437438,68.5148262 C50.3437438,58.1070908 53.0532324,48.3673317 58.247864,40.5445783 C63.3669912,32.8166833 70.9568108,27.5359911 76.7294666,27.5359911 C77.1304709,27.5359911 77.5213598,27.5619599 77.9010495,27.6120942 L77.9032171,27.6120942 Z M57.4790918,139.432131 C58.486299,144.150526 59.3634508,148.282818 59.4447355,148.611757 C59.7633713,149.988827 61.8583479,159.847249 61.8583479,159.950042 L61.8583479,159.950764 C61.8384784,159.961223 61.5801738,160.04995 61.2799624,160.149137 C44.7434114,165.648761 34.2197576,180.690131 34.2197576,196.800553 C34.2197576,200.460356 34.7638229,204.174261 35.9007243,207.846689 C38.9812323,217.791674 46.4406351,226.074292 55.953469,230.126514 C56.7034555,230.445714 57.3988909,230.602248 58.0152093,230.602248 C59.3934358,230.602248 60.3764383,229.826429 60.6813461,228.373977 C60.7326457,228.13088 60.7564892,227.901489 60.7564892,227.68436 C60.7564892,226.603407 60.113076,225.797652 58.5852857,224.859527 C51.4456025,220.484138 47.887502,213.14289 47.887502,205.63537 C47.887502,197.993677 51.5749354,190.179219 58.9245136,185.147395 C60.8749842,183.814688 65.5714312,181.591467 66.3839165,181.591467 C66.4384675,181.591467 66.4767616,181.601926 66.4944636,181.622485 C66.5139719,181.642322 67.6602663,186.968821 69.0471632,193.459228 C70.4340601,199.949635 71.6508011,205.655207 71.7584581,206.153664 C71.8690053,206.64058 72.0167627,207.337411 72.0984086,207.697007 C72.1800546,208.056603 72.93546,211.59053 73.782988,215.560878 C74.639909,219.53375 76.4946442,228.244133 77.9324795,234.915601 C79.3591156,241.595365 80.524557,247.11158 80.524557,247.171092 C80.524557,247.448814 76.1875689,248.604067 73.544553,249.042652 C71.1016781,249.44553 68.6616932,249.643542 66.2448294,249.643542 C47.2776865,249.643542 29.7071946,237.524027 22.0400643,218.36948 C19.440039,211.865367 18.1582703,204.913652 18.1582703,197.88403 C18.1582703,187.117059 21.1665252,176.168306 27.0551471,166.379495 C30.0363071,161.43243 37.794115,151.17618 45.0147216,142.635676 C48.5146583,138.492925 55.3844764,130.838969 55.5943715,130.838969 C55.6254403,130.838969 56.4708007,134.701473 57.4787305,139.430328 L57.4790918,139.432131 Z M77.6622532,180.677147 C94.2493813,182.496409 106.32214,197.056274 106.32214,213.289325 C106.32214,215.900637 106.009285,218.555591 105.353227,221.207298 C103.327975,229.39109 98.0329113,236.937564 90.6840556,242.094183 C89.4582829,242.962336 86.8373042,244.557977 86.6458337,244.557977 C86.6389697,244.557977 86.635357,244.556174 86.635357,244.552206 C86.6042882,244.461676 85.3080689,238.438708 84.9106772,236.566787 C84.7603909,235.830282 81.9981575,222.937833 78.7872329,207.935416 C75.5763082,192.921817 72.9441303,180.617996 72.9441303,180.586977 C72.9441303,180.514842 73.4051047,180.480577 74.079948,180.480577 C75.0680082,180.480577 76.518849,180.552713 77.6611694,180.676065 L77.6622532,180.677147 Z" id="path4954"></path>
                </g>
            </g>
        </g>
    </g>
</svg>